<?xml version="1.0" encoding="UTF-8" standalone="no"?>
<!-- Created with Inkscape (http://www.inkscape.org/) -->

<svg
   xmlns:dc="http://purl.org/dc/elements/1.1/"
   xmlns:cc="http://creativecommons.org/ns#"
   xmlns:rdf="http://www.w3.org/1999/02/22-rdf-syntax-ns#"
   xmlns:svg="http://www.w3.org/2000/svg"
   xmlns="http://www.w3.org/2000/svg"
   xmlns:xlink="http://www.w3.org/1999/xlink"
   xmlns:sodipodi="http://sodipodi.sourceforge.net/DTD/sodipodi-0.dtd"
   xmlns:inkscape="http://www.inkscape.org/namespaces/inkscape"
   width="210mm"
   height="297mm"
   viewBox="0 0 210 297"
   version="1.1"
   id="svg5037"
   inkscape:version="0.92.3 (2405546, 2018-03-11)"
   sodipodi:docname="Logo.svg"
   inkscape:export-filename="D:\Personal\img\Logo.png"
   inkscape:export-xdpi="97"
   inkscape:export-ydpi="97">
  <title
     id="title5803">logo</title>
  <defs
     id="defs5031">
    <linearGradient
       inkscape:collect="always"
       xlink:href="#linearGradient4817"
       id="linearGradient4993"
       gradientUnits="userSpaceOnUse"
       x1="33.675961"
       y1="91.336098"
       x2="41.426777"
       y2="91.336098"
       gradientTransform="matrix(6.75929,8.6234997e-8,-5.3614603e-8,6.8198429,-78.629403,-637.25729)" />
    <linearGradient
       inkscape:collect="always"
       id="linearGradient4817">
      <stop
         style="stop-color:#000000;stop-opacity:1;"
         offset="0"
         id="stop4813" />
      <stop
         style="stop-color:#000000;stop-opacity:0;"
         offset="1"
         id="stop4815" />
    </linearGradient>
    <linearGradient
       inkscape:collect="always"
       xlink:href="#linearGradient4817"
       id="linearGradient4995"
       gradientUnits="userSpaceOnUse"
       gradientTransform="matrix(4.3278996,5.3489417,-5.4416545,4.0917585,456.05201,-446.23936)"
       x1="40.081905"
       y1="90.088531"
       x2="41.175575"
       y2="90.127846" />
    <linearGradient
       inkscape:collect="always"
       xlink:href="#linearGradient4817"
       id="linearGradient4995-6"
       gradientUnits="userSpaceOnUse"
       gradientTransform="matrix(3.3288433,-2.5455816,2.506408,3.2513953,-210.49368,-83.669842)"
       x1="41.156708"
       y1="90.239777"
       x2="41.181946"
       y2="90.289047" />
    <linearGradient
       inkscape:collect="always"
       xlink:href="#linearGradient4817"
       id="linearGradient5700"
       gradientUnits="userSpaceOnUse"
       gradientTransform="matrix(1.1295047,-0.7685361,0.71726268,1.1484344,-64.915372,-3.1925538)"
       x1="40.081905"
       y1="90.088531"
       x2="41.175575"
       y2="90.127846" />
    <linearGradient
       inkscape:collect="always"
       xlink:href="#linearGradient4817"
       id="linearGradient5704"
       gradientUnits="userSpaceOnUse"
       gradientTransform="matrix(1.0532943,-0.87082242,0.82068913,1.0763657,-70.60915,12.40075)"
       x1="40.081905"
       y1="90.088531"
       x2="41.175575"
       y2="90.127846" />
    <linearGradient
       inkscape:collect="always"
       xlink:href="#linearGradient4817"
       id="linearGradient5706"
       gradientUnits="userSpaceOnUse"
       gradientTransform="matrix(0.32569554,-0.22465269,0.16551372,0.3754061,12.850285,47.333632)"
       x1="41.143501"
       y1="90.092514"
       x2="41.143509"
       y2="90.092529" />
    <linearGradient
       inkscape:collect="always"
       xlink:href="#linearGradient4817"
       id="linearGradient4995-3"
       gradientUnits="userSpaceOnUse"
       gradientTransform="matrix(0.99088965,-0.67839298,0.16593493,4.0792538,100.15245,-311.14737)"
       x1="40.535038"
       y1="89.051445"
       x2="40.57074"
       y2="88.415718" />
    <linearGradient
       inkscape:collect="always"
       xlink:href="#linearGradient4817"
       id="linearGradient5801"
       gradientUnits="userSpaceOnUse"
       gradientTransform="matrix(0.99088965,-0.67839298,0.16593493,4.0792538,100.68161,-282.8168)"
       x1="40.535038"
       y1="89.051445"
       x2="40.57074"
       y2="88.415718" />
    <linearGradient
       inkscape:collect="always"
       xlink:href="#linearGradient4817"
       id="linearGradient5855"
       gradientUnits="userSpaceOnUse"
       gradientTransform="matrix(6.75929,8.6234997e-8,-5.3614603e-8,6.8198429,-78.629403,-637.25729)"
       x1="33.675961"
       y1="91.336098"
       x2="41.426777"
       y2="91.336098" />
  </defs>
  <sodipodi:namedview
     id="base"
     pagecolor="#ffffff"
     bordercolor="#666666"
     borderopacity="1.0"
     inkscape:pageopacity="0.0"
     inkscape:pageshadow="2"
     inkscape:zoom="0.7"
     inkscape:cx="285.57067"
     inkscape:cy="745.63515"
     inkscape:document-units="mm"
     inkscape:current-layer="layer1"
     showgrid="false"
     inkscape:snap-to-guides="false"
     inkscape:window-width="1920"
     inkscape:window-height="1017"
     inkscape:window-x="-8"
     inkscape:window-y="-8"
     inkscape:window-maximized="1" />
  <metadata
     id="metadata5034">
    <rdf:RDF>
      <cc:Work
         rdf:about="">
        <dc:format>image/svg+xml</dc:format>
        <dc:type
           rdf:resource="http://purl.org/dc/dcmitype/StillImage" />
        <dc:title>logo</dc:title>
      </cc:Work>
    </rdf:RDF>
  </metadata>
  <g
     inkscape:label="Capa 1"
     inkscape:groupmode="layer"
     id="layer1">
    <g
       id="g4991"
       transform="matrix(5.0427053,0,0,5.0226393,-46.494537,-336.24222)">
      <g
         id="g5093" />
    </g>
    <text
       xml:space="preserve"
       style="font-style:normal;font-variant:normal;font-weight:normal;font-stretch:normal;font-size:57.12269974px;line-height:1.25;font-family:Arial;-inkscape-font-specification:'Arial, Normal';font-variant-ligatures:normal;font-variant-caps:normal;font-variant-numeric:normal;font-feature-settings:normal;text-align:start;letter-spacing:0px;word-spacing:0px;writing-mode:lr-tb;text-anchor:start;fill:#000000;fill-opacity:1;stroke:none;stroke-width:1.42806613"
       x="-33.35392"
       y="144.76703"
       id="text4959"
       transform="matrix(0.85592984,-0.532587,0.55312564,0.82414754,0,0)"><tspan
         sodipodi:role="line"
         id="tspan4957"
         x="-33.35392"
         y="144.76703"
         style="font-style:normal;font-variant:normal;font-weight:normal;font-stretch:normal;font-size:57.12269974px;font-family:Arial;-inkscape-font-specification:'Arial, Normal';font-variant-ligatures:normal;font-variant-caps:normal;font-variant-numeric:normal;font-feature-settings:normal;text-align:start;writing-mode:lr-tb;text-anchor:start;stroke-width:1.42806613">I</tspan></text>
    <path
       d="m 65.311642,128.56722 c 3.243085,-5.33778 10.071992,-10.10669 11.340445,-16.3583 0.877198,-4.32335 0.257884,-9.33927 -3.274784,-15.703432 C 62.711533,85.270321 52.452416,93.693252 42.049017,95.141189 Z"
       id="path4961"
       inkscape:connector-curvature="0"
       style="stroke-width:1.33155847"
       sodipodi:nodetypes="csccc" />
    <text
       xml:space="preserve"
       style="font-style:normal;font-weight:normal;font-size:53.26234055px;line-height:1.25;font-family:sans-serif;letter-spacing:0px;word-spacing:0px;fill:#000000;fill-opacity:1;stroke:none;stroke-width:1.33155847"
       x="-3.0730193"
       y="141.01471"
       id="text4965"
       transform="matrix(0.81085724,-0.58630491,0.58864727,0.80763072,0,0)"><tspan
         sodipodi:role="line"
         id="tspan4963"
         x="-3.0730193"
         y="141.01471"
         style="stroke-width:1.33155847">2</tspan></text>
    <text
       xml:space="preserve"
       style="font-style:normal;font-weight:normal;font-size:53.26234055px;line-height:1.25;font-family:sans-serif;letter-spacing:0px;word-spacing:0px;fill:#000000;fill-opacity:1;stroke:none;stroke-width:1.33155847"
       x="58.449501"
       y="139.91043"
       id="text4969"
       transform="matrix(0.81085724,-0.58630491,0.58864727,0.80763072,0,0)"><tspan
         sodipodi:role="line"
         id="tspan4967"
         x="58.449501"
         y="139.91043"
         style="stroke-width:1.33155847">2</tspan></text>
    <text
       xml:space="preserve"
       style="font-style:normal;font-weight:normal;font-size:55.01087952px;line-height:1.25;font-family:sans-serif;letter-spacing:0px;word-spacing:0px;fill:#000000;fill-opacity:1;stroke:none;stroke-width:1.37527192"
       x="21.976068"
       y="136.50711"
       id="text4973"
       transform="matrix(0.78508388,-0.56766906,0.60797186,0.83414422,0,0)"><tspan
         sodipodi:role="line"
         id="tspan4971"
         x="21.976068"
         y="136.50711"
         style="stroke-width:1.37527192">0</tspan></text>
    <text
       xml:space="preserve"
       style="font-style:normal;font-weight:normal;font-size:55.01087952px;line-height:1.25;font-family:sans-serif;letter-spacing:0px;word-spacing:0px;fill:#000000;fill-opacity:1;stroke:none;stroke-width:1.37527192"
       x="35.608944"
       y="136.56708"
       id="text4977"
       transform="matrix(0.78508388,-0.56766906,0.60797186,0.83414422,0,0)"><tspan
         sodipodi:role="line"
         id="tspan4975"
         x="35.608944"
         y="136.56708"
         style="stroke-width:1.37527192">0</tspan></text>
    <path
       style="fill:#000000;fill-opacity:1;stroke-width:2.84345388;stroke-miterlimit:4;stroke-dasharray:none"
       id="path4987"
       d="m 104.939,92.531566 c 1.06484,1.568455 11.47663,-2.276888 2.39498,3.739129 l -2.75078,1.926604 -4.00264,-2.42939 c 5.41921,-1.075292 -0.26742,2.388335 0,0 z"
       inkscape:connector-curvature="0"
       sodipodi:nodetypes="cccccc" />
    <path
       style="fill:#000000;fill-opacity:1;stroke-width:2.84345388;stroke-miterlimit:4;stroke-dasharray:none"
       id="path4989"
       d="m 129.63466,73.880241 c 1.80762,-0.750624 -0.98711,-1.447183 -0.0881,-1.889974 0.40962,-0.227526 3.96831,-0.06248 4.34644,-0.334609 l 0.63258,3.614121 2.15905,-1.518515 -2.15905,1.518515 c 3.92799,-3.045492 -4.11021,3.416093 -4.98789,3.885981 z"
       inkscape:connector-curvature="0"
       sodipodi:nodetypes="cccccccc" />
    <path
       sodipodi:type="spiral"
       style="fill:none;fill-rule:evenodd;stroke:#000000;stroke-width:0.26458332"
       id="path5685"
       sodipodi:cx="157.56944"
       sodipodi:cy="55.982334"
       sodipodi:expansion="1"
       sodipodi:revolution="2.4855721"
       sodipodi:radius="9.7025585"
       sodipodi:argument="-19.387722"
       sodipodi:t0="0.99900001"
       d="m 149.8206,61.805298 c -0.0329,-0.03842 -0.0655,-0.07709 -0.0978,-0.116013" />
    <path
       style="fill:#000000;fill-opacity:1;stroke-width:4.171;stroke-miterlimit:4;stroke-dasharray:none"
       d="m 141.78112,106.90458 c 0,0 0,0 0,0 z"
       id="path5689"
       inkscape:connector-curvature="0" />
    <path
       style="fill:#000000;fill-opacity:1;stroke:url(#linearGradient5801);stroke-width:4.46999979;stroke-linecap:butt;stroke-linejoin:miter;stroke-miterlimit:4;stroke-dasharray:none;stroke-opacity:1"
       d="m 149.72276,61.689285 3.54111,-2.773396 c 4.55268,-3.578995 6.52582,-4.661407 7.75742,-4.806869 0.78024,-0.09215 1.01861,0.605797 1.01861,0.605797 -0.12734,-0.01109 0.22758,-0.256179 0.22758,-0.256179"
       id="path4985-1"
       inkscape:connector-curvature="0"
       sodipodi:nodetypes="ccssc" />
    <g
       style=""
       id="g5828"
       transform="translate(-1.6091146,0.80567826)">
      <g
         id="g5841" />
    </g>
    <g
       inkscape:groupmode="layer"
       id="layer3"
       inkscape:label="Layer 1">
      <g
         transform="translate(2.1706473,-1.0842027)"
         id="g5849">
        <ellipse
           transform="matrix(0.62900538,0.77740095,-0.79925785,0.60098825,0,0)"
           id="ellipse4979"
           cx="175.19121"
           cy="-14.359461"
           rx="26.195009"
           ry="38.277458"
           style="fill:url(#linearGradient5855);fill-opacity:1;stroke-width:1.79638815" />
        <path
           sodipodi:nodetypes="cccsccsccccccccccccccccccccccccccsccccc"
           inkscape:connector-curvature="0"
           id="path4985"
           d="m 112.09066,103.09131 0.33686,0.41868 14.15031,17.59053 2.83304,3.50142 c 0.23772,0.29377 8.53181,10.54581 8.53181,10.54581 0.74652,0.94649 5.92278,7.32348 5.92278,7.32348 l -2.31262,-2.81162 0.003,0.0105 v 0 0 0 0 0 0 l 0.83871,1.14495 v 0 0 l 0.73213,0.85067 0.73789,0.80579 -0.73784,-0.80574 -5e-5,-5e-5 5e-5,5e-5 v 0 l -5e-5,-5e-5 5e-5,5e-5 -5e-5,-5e-5 -0.73213,-0.85067 v 0 l 0.73218,0.85072 v 0 l -5e-5,-5e-5 v 0 0 l -0.34059,-0.3776 0.34059,0.3776 5e-5,5e-5 v 0 0 l -0.73218,-0.85072"
           style="fill:#000000;fill-opacity:1;stroke:url(#linearGradient4995);stroke-width:2.56599998;stroke-linecap:butt;stroke-linejoin:miter;stroke-miterlimit:4;stroke-dasharray:none;stroke-opacity:1" />
        <path
           sodipodi:nodetypes="cccscssccc"
           inkscape:connector-curvature="0"
           id="path4985-3"
           d="m 127.76774,123.21067 0.26056,-0.19814 10.94686,-8.32245 2.17905,-1.66634 c 0.18285,-0.13983 6.85835,-5.33714 6.85835,-5.33714 l 5.95884,-5.51167 c 2.1e-4,-2e-4 -0.93757,-0.29014 -1.76763,-0.32964 -1.33988,-0.0637 -2.39913,0.14604 1.22033,0.44162 m 2.94086,3.54701 v 0"
           style="fill:#000000;fill-opacity:1;stroke:url(#linearGradient4995-6);stroke-width:2.34346676;stroke-linecap:round;stroke-linejoin:miter;stroke-miterlimit:4;stroke-dasharray:none;stroke-opacity:1;paint-order:stroke fill markers" />
      </g>
      <path
         sodipodi:type="spiral"
         style="fill:none;fill-rule:evenodd;stroke:#000000;stroke-width:22.05068016;stroke-miterlimit:4;stroke-dasharray:none"
         id="path5112"
         sodipodi:cx="575.71265"
         sodipodi:cy="117.03584"
         sodipodi:expansion="1.3"
         sodipodi:revolution="1.7029374"
         sodipodi:radius="211.75552"
         sodipodi:argument="-17.370476"
         sodipodi:t0="0.12291978"
         d="M 562.66268,121.75937 C 546.25383,113.9554 552.33326,90.744413 562.592,80.786637 585.55042,58.501764 622.50857,70.72087 639.48631,93.95254 c 28.62706,39.17214 8.86762,93.41226 -29.59503,117.51071 -56.65324,35.4956 -130.32213,7.11532 -161.77801,-48.24196 -42.79191,-75.306872 -4.96735,-170.0114431 68.63403,-209.092639 92.00582,-48.853663 205.79869,-5.450008 255.02705,82.905878"
         transform="matrix(-0.09423898,0.20371273,-0.15226242,-0.05931863,230.18518,-51.930834)" />
    </g>
    <g
       inkscape:groupmode="layer"
       id="layer4"
       inkscape:label="Layer 2" />
  </g>
</svg>
